<svg xmlns="http://www.w3.org/2000/svg" viewBox="0 0 20 20"><path d="M19,10.11a1,1,0,0,0-.13-.36c-3-3.83-6.16-5.68-9.38-5.52-5,.26-8.31,5.36-8.44,5.57A1,1,0,0,0,1,10v.22a1,1,0,0,0,.08.2c.13.21,3.4,5.31,8.44,5.57h.39c3.09,0,6.11-1.86,9-5.53A1,1,0,0,0,19,10.11ZM10,6A3.57,3.57,0,1,1,6.44,9.55,3.56,3.56,0,0,1,10,6Zm-.43,8.87c-3.8-.19-6.57-3.69-7.33-4.74a13,13,0,0,1,4.52-4A4.7,4.7,0,0,0,10,14.26a4.72,4.72,0,0,0,4.71-4.71,4.65,4.65,0,0,0-1.29-3.22,14.64,14.64,0,0,1,4.29,3.78C15.05,13.39,12.31,15,9.58,14.85Z"/></svg>